<svg xmlns="http://www.w3.org/2000/svg" viewBox="0 0 1000 400">
  <defs>
    <clipPath id="clippath">
      <path class="cls-2" d="m5.76,3.39c0,1.87.9,3.39,2.02,3.39s2.02-1.51,2.02-3.39S8.89,0,7.78,0c-1.11,0-2.02,1.51-2.02,3.39" style="fill: none; stroke-width: 0px;"></path>
    </clipPath>
  </defs>
  <g transform="matrix(14.781965, 0, 0, 8.56531, 0.000006, 20.214127)" style="">
    <path class="cls-4" d="m4.91,15.1h5.02l4.85,16.17,1.7-16.17h5.07l-3.07,29.23h-5.07l-4.83-16.05-1.68,16.05H1.84l3.07-29.23Z" style="stroke-width: 0px; fill: rgb(17, 20, 24);"></path>
    <path class="cls-4" d="m23.39,15.1h5.39l-3.07,29.23h-5.39l3.07-29.23Z" style="stroke-width: 0px; fill: rgb(17, 20, 24);"></path>
    <path class="cls-4" d="m30.7,15.1h10.07c1.68,0,2.89.7,3.64,2.09.75,1.39,1.02,3.12.8,5.18-.18,1.73-.66,3.21-1.43,4.45-.51.83-1.21,1.47-2.08,1.96,1.2.5,2.03,1.37,2.49,2.6.46,1.23.59,2.78.4,4.64-.16,1.51-.51,2.88-1.06,4.09-.55,1.21-1.22,2.17-2.02,2.87-.5.44-1.21.76-2.14.96-1.24.26-2.06.4-2.45.4h-9.28l3.07-29.22Zm4.22,11.46h2.34c.84,0,1.45-.24,1.83-.73.38-.49.62-1.19.71-2.11.09-.85,0-1.51-.28-1.99s-.83-.72-1.64-.72h-2.37l-.58,5.54Zm-1.21,11.49h2.74c.93,0,1.61-.28,2.05-.83s.71-1.29.8-2.22c.09-.87-.02-1.56-.34-2.08-.32-.53-.95-.79-1.89-.79h-2.73l-.63,5.92Z" style="stroke-width: 0px; fill: rgb(17, 20, 24);"></path>
    <path class="cls-4" d="m48.08,15.1h7.07l.86,17.79,4.57-17.79h7.07l-3.07,29.23h-4.4l2.34-22.29-5.73,22.29h-3.99l-1.05-22.29-2.34,22.29h-4.4l3.07-29.23Z" style="stroke-width: 0px; fill: rgb(17, 20, 24);"></path>
    <g class="cls-1" style="clip-path: url(#clippath);">
      <polygon class="cls-3" points="4.36 5.81 6.33 -2.36 11.2 .96 9.22 9.13 4.36 5.81" style="stroke-width: 0px; fill: rgb(17, 20, 24);"></polygon>
    </g>
    <path class="cls-5" d="m0,3.39l7.62,11.37L14.68,2.35s-3.73,4.23-5.24,5.6c-.71.65-2.14.88-3.82-.01C3.94,7.04,0,3.39,0,3.39" style="stroke-width: 0px; fill: rgb(17, 20, 24);"></path>
  </g>
</svg>